<?xml version="1.0" encoding="iso-8859-1"?>
<!-- Generator: Adobe Illustrator 19.0.0, SVG Export Plug-In . SVG Version: 6.00 Build 0)  -->
<svg version="1.1" id="Layer_1" xmlns="http://www.w3.org/2000/svg" xmlns:xlink="http://www.w3.org/1999/xlink" x="0px" y="0px"
	 viewBox="0 0 512 512" style="enable-background:new 0 0 512 512;" xml:space="preserve">
<g>
	<g>
		<path d="M403.394,108.606h-56.401c-4.184-23.395-14.545-44.663-29.349-62.061h85.749c12.854,0,23.273-10.42,23.273-23.273
			C426.667,10.42,416.248,0,403.394,0H217.212H108.606C95.753,0,85.333,10.42,85.333,23.273c0,0.003,0,0.005,0,0.008
			c0,0.002,0,0.005,0,0.008c0,12.853,10.42,23.273,23.273,23.273h108.606c0.251,0,0.501-0.005,0.751-0.012
			c38.658,0.334,71.241,26.514,81.332,62.057H108.606c-12.853,0-23.273,10.42-23.273,23.273c0,12.853,10.42,23.273,23.273,23.273
			h190.689c-10.158,35.773-43.098,62.061-82.083,62.061H108.606c-12.853,0-23.273,10.42-23.273,23.273c0,0.002,0,0.005,0,0.008
			c0,0.002,0,0.005,0,0.008c0,12.853,10.42,23.273,23.273,23.273h108.606c0.251,0,0.501-0.005,0.751-0.012
			c46.71,0.403,84.582,38.527,84.582,85.33v139.636c0,12.853,10.422,23.273,23.273,23.273c12.854,0,23.273-10.42,23.273-23.273
			V349.091c0-45.005-22.672-84.798-57.184-108.606c28.421-19.607,48.778-50.06,55.088-85.333h56.399
			c12.854,0,23.273-10.42,23.273-23.273C426.667,119.026,416.248,108.606,403.394,108.606z"/>
	</g>
</g>
<g>
</g>
<g>
</g>
<g>
</g>
<g>
</g>
<g>
</g>
<g>
</g>
<g>
</g>
<g>
</g>
<g>
</g>
<g>
</g>
<g>
</g>
<g>
</g>
<g>
</g>
<g>
</g>
<g>
</g>
</svg>
